inDegrees=no
num_controls=7
num_derivatives=13
num_iterations=52
num_multipliers=7
num_parameters=0
num_slacks=7
num_states=26
objective=0.433952
objective_accelerations=0.048905
objective_balance=0.007017
objective_effort=0.031862
objective_height=0.344921
objective_ligament=0.001248
solver_duration=665.720902
status=Solve_Succeeded
success=true
DataType=double
version=3
OpenSimVersion=4.5
endheader
time	/jointset/ground_pelvis/pelvis_tilt/value	/jointset/ground_pelvis/pelvis_tx/value	/jointset/ground_pelvis/pelvis_ty/value	/jointset/hip_l/hip_flexion_l/value	/jointset/hip_l/hip_adduction_l/value	/jointset/hip_l/hip_rotation_l/value	/jointset/back/lumbar_extension/value	/jointset/patellofemoral_l/patellar_flexion_l/value	/jointset/knee_l/knee_flexion_l/value	/jointset/knee_l/knee_adduction_l/value	/jointset/knee_l/knee_rotation_l/value	/jointset/ankle_l/ankle_angle_l/value	/jointset/subtalar_l/subtalar_angle_l/value	/jointset/ground_pelvis/pelvis_tilt/speed	/jointset/ground_pelvis/pelvis_tx/speed	/jointset/ground_pelvis/pelvis_ty/speed	/jointset/hip_l/hip_flexion_l/speed	/jointset/hip_l/hip_adduction_l/speed	/jointset/hip_l/hip_rotation_l/speed	/jointset/back/lumbar_extension/speed	/jointset/patellofemoral_l/patellar_flexion_l/speed	/jointset/knee_l/knee_flexion_l/speed	/jointset/knee_l/knee_adduction_l/speed	/jointset/knee_l/knee_rotation_l/speed	/jointset/ankle_l/ankle_angle_l/speed	/jointset/subtalar_l/subtalar_angle_l/speed	/forceset/tau_hip_flexion_l	/forceset/tau_hip_adduction_l	/forceset/tau_hip_rotation_l	/forceset/tau_knee_flexion_l	/forceset/tau_ankle_angle_l	/forceset/tau_subtalar_angle_l	/forceset/tau_lumbar_extension	lambda_cid13_p0	lambda_cid13_p1	lambda_cid13_p2	lambda_cid13_p3	lambda_cid13_p4	lambda_cid13_p5	lambda_cid14_p0	/jointset/ground_pelvis/pelvis_tilt/accel	/jointset/ground_pelvis/pelvis_tx/accel	/jointset/ground_pelvis/pelvis_ty/accel	/jointset/hip_l/hip_flexion_l/accel	/jointset/hip_l/hip_adduction_l/accel	/jointset/hip_l/hip_rotation_l/accel	/jointset/back/lumbar_extension/accel	/jointset/patellofemoral_l/patellar_flexion_l/accel	/jointset/knee_l/knee_flexion_l/accel	/jointset/knee_l/knee_adduction_l/accel	/jointset/knee_l/knee_rotation_l/accel	/jointset/ankle_l/ankle_angle_l/accel	/jointset/subtalar_l/subtalar_angle_l/accel	gamma_cid13_p0	gamma_cid13_p1	gamma_cid13_p2	gamma_cid13_p3	gamma_cid13_p4	gamma_cid13_p5	gamma_cid14_p0
1	-0.4799845714577203	-0.06495093751722525	0.6014849271336438	1.784092938130569	-0.2783224928867085	0.2011238410022609	-0.4363264182293976	1.364369836495855	1.36436983649597	-0.1744762612764038	0.174525591314086	0.272972809030152	0.03158960102414281	-0.004095293813527709	0.00182789706638686	-0.004109809869447203	0.01307674946929185	0.001427089744515144	0.005571916133660457	0.0002150197639035255	0.01486691323177027	0.01486691323177113	-1.050142257145581e-06	3.120297815073439e-05	0.006888983708335883	0.003480401339796582	-0.3476610195199157	0.04270771091911801	-0.01541987389667524	-0.346986936934209	0.07363095994332569	-0.008603745952745925	0.3050481877089185	-23.42460980822754	11.33158194519884	-6.199395376144426	13.29939068815261	-728.1864278554722	-21.91964270413973	-0.04000823997506528	1.22375969374832	0.07040881225851614	1.778427137370924	-5.857499883121435	-0.5467510776452913	-1.993195318964192	-0.0273895547568582	-5.378776155106551	-5.378776155106794	-0.05912102695253681	0.01726297146923316	-1.04583492329408	-0.9147762951862628	2.341212120738362e-09	3.472584189832015e-09	-1.440318775035753e-08	-4.682323258179157e-09	2.924328914414576e-09	-5.830124720297833e-09	2.439052443686387e-09
1.01	-0.4799648430108503	-0.06492921868283237	0.6015326399536451	1.78393160618002	-0.2783347284516152	0.2010781446344055	-0.4363251026270448	1.36424982740531	1.36424982740528	-0.1744763229645493	0.1745259963456009	0.2729895311057173	0.03157979660334723	0.008037950424405046	0.002510944895162043	0.01364989071850514	-0.04533163152262654	-0.003871259171399456	-0.014707706509487	4.624001161099834e-05	-0.03887593724602784	-0.03887593724604018	-1.350863991713385e-05	4.567654499463764e-05	-0.003561117970656926	-0.005441236625113378	-0.3476402262075428	0.04281796938465597	-0.01543287847851748	-0.3467671359813449	0.07326498054333834	-0.008564859568248019	0.3050053585474324	-23.5345408320668	11.33120964334488	-6.196215247712237	13.43603188700365	-728.0446427163552	-21.90789142980657	-0.04002476676278471	1.207651953933953	0.06651478961942797	1.774367504300373	-5.830781105502447	-0.5209400969042408	-2.044827829606394	-0.01190129034365737	-5.373119217511483	-5.373119217513342	0.02735640489636613	-0.007087333533408032	-1.047079375120558	-0.8808541100659191	-1.470346944970401e-09	-1.324936813175493e-09	3.379786303565428e-08	3.709915541842295e-09	-7.606242430451008e-09	2.519676997796814e-08	-5.729444360941733e-09
1.02	-0.4798238730885757	-0.06490081696586542	0.6017578749764859	1.783186535639894	-0.2783998601653488	0.2008297556215959	-0.4363255306431499	1.363592173865307	1.363592173865136	-0.1744765763044563	0.174526420736218	0.2729012558475092	0.03148077649031805	0.0201530012670654	0.003164473581198793	0.03139463069823351	-0.1036709684455561	-0.009152140020902783	-0.03496661285728828	-0.0001337039358028741	-0.09266197665962458	-0.09266197665964852	-3.938049481186077e-05	3.507479882362968e-05	-0.0141104830463974	-0.01436273710692492	-0.3476194328951869	0.04292822785019431	-0.01544588306035267	-0.3465473350284756	0.07289900114335647	-0.008525973183748129	0.3049625293859269	-23.65187283941793	11.33188358839136	-6.192916982303659	13.61383018852504	-728.009591745855	-21.85270908172257	-0.04003298685635316	1.220121014693817	0.06450498371084694	1.775435015726137	-5.843691069323688	-0.5432574643630407	-1.989052059894953	-0.02962239378113152	-5.387413942266275	-5.387413942266201	-0.06180369839949382	0.01224790886625666	-1.065687602643582	-0.9147487985665764	-4.88462295347543e-09	-5.450139402493624e-09	8.137053278134642e-08	1.070423410106317e-08	-1.697238550795684e-08	5.877173479571692e-08	-1.415284840792273e-08
1.03	-0.4795618134350882	-0.06486594272667981	0.6021604224153204	1.781858467404204	-0.2785176574936811	0.2003789386471352	-0.4363276183456185	1.362396603017301	1.36239660301712	-0.1744771352853433	0.1745266434936513	0.272707068624137	0.03129265351663672	0.03225831557879793	0.00381383786060229	0.0491063753868636	-0.161925717481332	-0.01439871342819838	-0.05518892389382283	-0.0002655425576544505	-0.1464438322606851	-0.1464438322606726	-7.126830676987309e-05	8.526244876991114e-06	-0.02473587314834572	-0.02325060758846045	-0.3474380700467062	0.04306824411551467	-0.01551053879764193	-0.3461945302128258	0.07284265253536616	-0.008447025490717372	0.3048771377476197	-23.64744178044625	11.28525154815288	-6.172267645480171	13.57546108697931	-727.7527425236166	-21.83635841682337	-0.04006032002032575	1.205644867314882	0.06567526995516437	1.767766621133864	-5.813823009451985	-0.5140837156785815	-2.037659793269428	-0.00222049638491927	-5.372312700046077	-5.372312700040712	0.02628202958068957	-0.01027860282100048	-1.062298945468285	-0.8741327067498521	-8.294845053233481e-09	-9.56848159983533e-09	1.289367904756067e-07	1.768428816803097e-08	-2.632664666436715e-08	9.237270032897066e-08	-2.257885354921346e-08
